<svg width="28" height="28" fill="none" xmlns="http://www.w3.org/2000/svg"><g filter="url(#prefix__filter0_dd)"><path d="M21.167 9.54h1.916c0-4.915-3.711-8.623-8.634-8.623v1.916c3.893 0 6.718 2.82 6.718 6.708z" fill="#BDBDBD"/><path d="M14.458 6.667c2.016 0 2.875.86 2.875 2.875h1.917c0-3.09-1.701-4.792-4.792-4.792v1.917zm3.28 5.216a.96.96 0 00-1.333.041l-2.294 2.359c-.552-.106-1.661-.452-2.804-1.591-1.142-1.143-1.488-2.256-1.59-2.804l2.356-2.295a.959.959 0 00.041-1.333l-3.54-3.893a.958.958 0 00-1.334-.084L5.16 4.067a.958.958 0 00-.277.622c-.015.24-.289 5.915 4.112 10.317 3.839 3.838 8.648 4.12 9.972 4.12.194 0 .313-.007.344-.009a.95.95 0 00.621-.279l1.783-2.08a.958.958 0 00-.083-1.333l-3.894-3.542z" fill="#BDBDBD"/><path d="M9.349 14.653s0 0 0 0 0 0 0 0zm0 0c3.699 3.698 8.343 3.972 9.618 3.972.185 0 .293-.005.314-.007h.002a.45.45 0 00.284-.121M8.573 2.367a.958.958 0 00-1.333-.084L5.16 4.067a.958.958 0 00-.277.622c-.015.24-.289 5.915 4.112 10.317l-.422-12.64z" stroke="#000"/><path d="M9.349 14.653s0 0 0 0 0 0 0 0zm0 0c3.699 3.698 8.343 3.972 9.618 3.972.185 0 .293-.005.314-.007h.002a.45.45 0 00.284-.121M8.573 2.367a.958.958 0 00-1.333-.084L5.16 4.067a.958.958 0 00-.277.622c-.015.24-.289 5.915 4.112 10.317l-.422-12.64z" stroke="url(#prefix__paint0_linear)"/></g><defs><linearGradient id="prefix__paint0_linear" x1="13.979" y1=".917" x2="13.979" y2="19.125" gradientUnits="userSpaceOnUse"><stop stop-color="#fff"/><stop offset="1" stop-color="#fff" stop-opacity="0"/></linearGradient><filter id="prefix__filter0_dd" x=".875" y=".917" width="26.209" height="26.208" filterUnits="userSpaceOnUse" color-interpolation-filters="sRGB"><feFlood flood-opacity="0" result="BackgroundImageFix"/><feColorMatrix in="SourceAlpha" values="0 0 0 0 0 0 0 0 0 0 0 0 0 0 0 0 0 0 127 0"/><feOffset dy="4"/><feGaussianBlur stdDeviation="2"/><feColorMatrix values="0 0 0 0 0 0 0 0 0 0 0 0 0 0 0 0 0 0 0.25 0"/><feBlend in2="BackgroundImageFix" result="effect1_dropShadow"/><feColorMatrix in="SourceAlpha" values="0 0 0 0 0 0 0 0 0 0 0 0 0 0 0 0 0 0 127 0"/><feOffset dy="4"/><feGaussianBlur stdDeviation="2"/><feColorMatrix values="0 0 0 0 0 0 0 0 0 0 0 0 0 0 0 0 0 0 0.25 0"/><feBlend in2="effect1_dropShadow" result="effect2_dropShadow"/><feBlend in="SourceGraphic" in2="effect2_dropShadow" result="shape"/></filter></defs></svg>