<svg width="26" height="22" fill="none" xmlns="http://www.w3.org/2000/svg"><g filter="url(#prefix__filter0_dd)"><path d="M19.667.333H6.333c-.916 0-1.658.75-1.658 1.667l-.008 10c0 .917.75 1.667 1.666 1.667h13.334c.916 0 1.666-.75 1.666-1.667V2c0-.917-.75-1.667-1.666-1.667zm-.334 3.542l-5.891 3.683a.843.843 0 01-.884 0L6.667 3.875a.708.708 0 11.75-1.2L13 6.167l5.583-3.492a.708.708 0 11.75 1.2z" fill="#BDBDBD"/><path d="M5.175 2v0c0-.644.521-1.167 1.158-1.167h13.334c.64 0 1.166.526 1.166 1.167v10c0 .64-.526 1.167-1.166 1.167H6.333c-.64 0-1.166-.527-1.166-1.167 0 0 0 0 0 0l.008-10zm8.532 5.982h0l5.883-3.678a1.208 1.208 0 10-1.28-2.048L13 5.576l-5.31-3.32a1.208 1.208 0 10-1.28 2.048l5.883 3.678h0c.43.268.985.268 1.414 0z" stroke="#000"/><path d="M5.175 2v0c0-.644.521-1.167 1.158-1.167h13.334c.64 0 1.166.526 1.166 1.167v10c0 .64-.526 1.167-1.166 1.167H6.333c-.64 0-1.166-.527-1.166-1.167 0 0 0 0 0 0l.008-10zm8.532 5.982h0l5.883-3.678a1.208 1.208 0 10-1.28-2.048L13 5.576l-5.31-3.32a1.208 1.208 0 10-1.28 2.048l5.883 3.678h0c.43.268.985.268 1.414 0z" stroke="url(#prefix__paint0_linear)"/></g><defs><linearGradient id="prefix__paint0_linear" x1="13" y1=".333" x2="13" y2="13.667" gradientUnits="userSpaceOnUse"><stop stop-color="#fff"/><stop offset="1" stop-color="#fff" stop-opacity="0"/></linearGradient><filter id="prefix__filter0_dd" x=".667" y=".333" width="24.667" height="21.333" filterUnits="userSpaceOnUse" color-interpolation-filters="sRGB"><feFlood flood-opacity="0" result="BackgroundImageFix"/><feColorMatrix in="SourceAlpha" values="0 0 0 0 0 0 0 0 0 0 0 0 0 0 0 0 0 0 127 0"/><feOffset dy="4"/><feGaussianBlur stdDeviation="2"/><feColorMatrix values="0 0 0 0 0 0 0 0 0 0 0 0 0 0 0 0 0 0 0.25 0"/><feBlend in2="BackgroundImageFix" result="effect1_dropShadow"/><feColorMatrix in="SourceAlpha" values="0 0 0 0 0 0 0 0 0 0 0 0 0 0 0 0 0 0 127 0"/><feOffset dy="4"/><feGaussianBlur stdDeviation="2"/><feColorMatrix values="0 0 0 0 0 0 0 0 0 0 0 0 0 0 0 0 0 0 0.25 0"/><feBlend in2="effect1_dropShadow" result="effect2_dropShadow"/><feBlend in="SourceGraphic" in2="effect2_dropShadow" result="shape"/></filter></defs></svg>