<svg width="22" height="28" fill="none" xmlns="http://www.w3.org/2000/svg"><g filter="url(#prefix__filter0_dd)"><path d="M11 0C7.13 0 4 3.13 4 7c0 4.17 4.42 9.92 6.24 12.11.4.48 1.13.48 1.53 0C13.58 16.92 18 11.17 18 7c0-3.87-3.13-7-7-7zm0 9.5a2.5 2.5 0 110-5 2.5 2.5 0 010 5z" fill="#BDBDBD"/><path d="M4.5 7C4.5 3.406 7.406.5 11 .5s6.5 2.906 6.5 6.5c0 1.94-1.04 4.32-2.366 6.541-1.312 2.2-2.85 4.163-3.748 5.25-.2.239-.562.239-.762 0-.902-1.086-2.444-3.049-3.757-5.25C5.54 11.32 4.5 8.941 4.5 7zm4.379 2.121A3 3 0 1013.12 4.88 3 3 0 008.88 9.12z" stroke="#000"/><path d="M4.5 7C4.5 3.406 7.406.5 11 .5s6.5 2.906 6.5 6.5c0 1.94-1.04 4.32-2.366 6.541-1.312 2.2-2.85 4.163-3.748 5.25-.2.239-.562.239-.762 0-.902-1.086-2.444-3.049-3.757-5.25C5.54 11.32 4.5 8.941 4.5 7zm4.379 2.121A3 3 0 1013.12 4.88 3 3 0 008.88 9.12z" stroke="url(#prefix__paint0_linear)"/></g><defs><linearGradient id="prefix__paint0_linear" x1="11" y1="0" x2="11" y2="19.47" gradientUnits="userSpaceOnUse"><stop stop-color="#fff"/><stop offset="1" stop-color="#fff" stop-opacity="0"/></linearGradient><filter id="prefix__filter0_dd" x="0" y="0" width="22" height="27.47" filterUnits="userSpaceOnUse" color-interpolation-filters="sRGB"><feFlood flood-opacity="0" result="BackgroundImageFix"/><feColorMatrix in="SourceAlpha" values="0 0 0 0 0 0 0 0 0 0 0 0 0 0 0 0 0 0 127 0"/><feOffset dy="4"/><feGaussianBlur stdDeviation="2"/><feColorMatrix values="0 0 0 0 0 0 0 0 0 0 0 0 0 0 0 0 0 0 0.25 0"/><feBlend in2="BackgroundImageFix" result="effect1_dropShadow"/><feColorMatrix in="SourceAlpha" values="0 0 0 0 0 0 0 0 0 0 0 0 0 0 0 0 0 0 127 0"/><feOffset dy="4"/><feGaussianBlur stdDeviation="2"/><feColorMatrix values="0 0 0 0 0 0 0 0 0 0 0 0 0 0 0 0 0 0 0.25 0"/><feBlend in2="effect1_dropShadow" result="effect2_dropShadow"/><feBlend in="SourceGraphic" in2="effect2_dropShadow" result="shape"/></filter></defs></svg>